<svg width="63" height="48" viewBox="0 0 63 48" fill="none" xmlns="http://www.w3.org/2000/svg">
<rect width="63" height="48" fill="white"/>
<path fill-rule="evenodd" clip-rule="evenodd" d="M57 2H6C3.79086 2 2 3.79086 2 6V42C2 44.2091 3.79086 46 6 46H57C59.2091 46 61 44.2091 61 42V6C61 3.79086 59.2091 2 57 2ZM6 0C2.68629 0 0 2.68629 0 6V42C0 45.3137 2.68629 48 6 48H57C60.3137 48 63 45.3137 63 42V6C63 2.68629 60.3137 0 57 0H6Z" fill="black"/>
<path d="M30.0076 24.8636C30.0076 23.0739 30.2396 21.4285 30.7037 19.9276C31.1724 18.4219 31.84 17.0369 32.7065 15.7727H34.1838C33.8429 16.2415 33.5233 16.8191 33.225 17.5057C32.9314 18.1875 32.6734 18.938 32.4508 19.7571C32.2283 20.5715 32.0531 21.4143 31.9252 22.2855C31.8021 23.1567 31.7406 24.0161 31.7406 24.8636C31.7406 25.9905 31.8495 27.134 32.0673 28.294C32.2851 29.4541 32.5787 30.5312 32.948 31.5256C33.3173 32.5199 33.7292 33.3295 34.1838 33.9545H32.7065C31.84 32.6903 31.1724 31.3078 30.7037 29.8068C30.2396 28.3011 30.0076 26.6534 30.0076 24.8636Z" fill="black"/>
</svg>

