<svg width="63" height="48" viewBox="0 0 63 48" fill="none" xmlns="http://www.w3.org/2000/svg">
<rect width="63" height="48" fill="white"/>
<path fill-rule="evenodd" clip-rule="evenodd" d="M57 2H6C3.79086 2 2 3.79086 2 6V42C2 44.2091 3.79086 46 6 46H57C59.2091 46 61 44.2091 61 42V6C61 3.79086 59.2091 2 57 2ZM6 0C2.68629 0 0 2.68629 0 6V42C0 45.3137 2.68629 48 6 48H57C60.3137 48 63 45.3137 63 42V6C63 2.68629 60.3137 0 57 0H6Z" fill="black"/>
<path d="M32.9906 24.8636C32.9906 26.6534 32.7562 28.3011 32.2875 29.8068C31.8234 31.3078 31.1582 32.6903 30.2917 33.9545H28.8145C29.1554 33.4858 29.4726 32.9081 29.7662 32.2216C30.0645 31.5398 30.3249 30.7917 30.5474 29.9773C30.7699 29.1581 30.9428 28.313 31.0659 27.4418C31.1937 26.5658 31.2576 25.7064 31.2576 24.8636C31.2576 23.7367 31.1487 22.5933 30.9309 21.4332C30.7131 20.2732 30.4196 19.196 30.0502 18.2017C29.6809 17.2074 29.269 16.3977 28.8145 15.7727H30.2917C31.1582 17.0369 31.8234 18.4219 32.2875 19.9276C32.7562 21.4285 32.9906 23.0739 32.9906 24.8636Z" fill="black"/>
</svg>
